<svg xmlns="http://www.w3.org/2000/svg" viewBox="-10.47 -8.90 841.81 546.91" role="img" aria-label="HireParrot">
  <defs>
    <clipPath id="hp-mark-clip"><path
         d="M 0,402.704 H 1920 V 0 H 0 Z"
         transform="translate(-540.22951,-302.10311)"
         id="path22" /></clipPath>
  </defs>
  <path d="m 0,0 13.485,79.887 h 8.581 L 56.697,0 Z m -24.926,-37.287 -161.001,55.88 68.446,61.294 H -5.108 Z m -19.308,-114.008 h -57.515 l -160.796,101.238 60.989,54.654 173.565,-60.171 z m -49.036,-32.281 -34.835,-88.469 -42.396,102.464 h 82.748 z m -178.06,32.281 -89.388,117.89 -14.2,18.593 h 21.555 l 6.13,-3.882 178.776,-112.272 32.281,-20.329 z M -419.765,-275.62 h -94.699 l 187.254,167.742 37.9,-50.057 z M 31.158,98.275 h -155.586 l -154.359,-138.218 -39.842,25.131 -29.114,18.388 h -63.849 l 13.893,-18.388 59.354,-78.458 -200.74,-179.796 v -20.84 h 126.471 l 137.81,124.325 h 84.485 l 51.385,-124.325 h 21.861 l 48.934,124.325 h 39.433 l 25.539,151.193 h 67.628 l 8.173,-16.108 1.635,0.714 v 32.863 z" style="fill:#eb603d;fill-opacity:1;fill-rule:nonzero;stroke:none" transform="matrix(1.3333333,0,0,-1.3333333,720.306,134.13453)" clip-path="url(#hp-mark-clip)"/>
</svg>
